<?xml version="1.0" encoding="utf-8"?>
<!-- Generator: Adobe Illustrator 16.0.0, SVG Export Plug-In . SVG Version: 6.00 Build 0)  -->
<!DOCTYPE svg PUBLIC "-//W3C//DTD SVG 1.1//EN" "http://www.w3.org/Graphics/SVG/1.1/DTD/svg11.dtd">
<svg version="1.1" id="圖層_1" xmlns="http://www.w3.org/2000/svg" xmlns:xlink="http://www.w3.org/1999/xlink" x="0px" y="0px"
	 width="213px" height="72px" viewBox="0 0 213 72" enable-background="new 0 0 213 72" xml:space="preserve">
<g>
	<g>
		<g>
			<path fill="#231815" d="M118.943,8.225c0.145-0.193,0.332-0.283,0.561-0.269c-0.357-0.272-0.717-0.541-1.074-0.813
				c0.781,2.547-0.955,5.559-1.764,7.929c-0.988,2.884-1.773,5.965-1.354,9.015c0.691,5.055,6.994,6.906,11.027,8.264
				c0.99,0.335,1.666-0.822,1.254-1.633c-1.871-3.693-2.891-7.633-3.4-11.728c-0.143-1.136-1.932-1.64-2.184-0.296
				c-0.51,2.697-1.848,5.398-2.977,7.873c-0.686,1.506-1.434,2.982-2.299,4.393c-0.33,0.541-0.693,1.056-1.115,1.523
				c-0.133,0.15-0.275,0.279-0.441,0.387c0.105-0.068,0.436,0.33,0.223-0.086c-0.672-1.266-2.592-0.144-1.922,1.123
				c1.979,3.743,5.283-1.922,6.141-3.511c1.807-3.347,3.824-7.337,4.533-11.111c-0.727-0.099-1.455-0.197-2.182-0.295
				c0.561,4.505,1.646,8.788,3.707,12.849c0.416-0.545,0.838-1.088,1.254-1.633c-2.076-0.695-4.143-1.374-6.061-2.447
				c-3.193-1.795-3.875-4.639-3.162-8.078c0.482-2.339,1.301-4.588,2.115-6.824c0.727-1.996,1.395-4.203,0.75-6.305
				c-0.143-0.465-0.566-0.829-1.07-0.814c-0.699,0.018-1.121,0.143-1.682,0.568C116.701,7.166,117.807,9.099,118.943,8.225
				L118.943,8.225z"/>
		</g>
		<g>
			<path fill="#231815" d="M108.674,27.904c0,0,0.131-0.215,0.549-0.654c0.586-0.625,1.301-1.123,2.002-1.61
				c1.658-1.154,3.443-2.133,5.221-3.088c1.338-0.718,2.701-1.396,4.053-2.091c2.391-1.23,5.033-1.886,7.348-3.278
				c1.227-0.739,0.109-2.663-1.123-1.923c-2.166,1.307-25.359,10.42-19.174,14.564C108.746,30.623,109.857,28.697,108.674,27.904
				L108.674,27.904z"/>
		</g>
		<g>
			<path fill="#231815" d="M131.344,7.996c1.395-0.291,3.174-1.01,4.555-0.375c1.521,0.699-0.604,3.881-1.043,4.678
				c-1.494,2.714-1.494,4.502,0.178,7.175c2.068,3.296,2.652,6.7,2.604,10.546c-0.025,2.348-0.113,7.035-2.813,8.023
				c0.418,0.17,0.834,0.34,1.256,0.511c-1.852-4.271,0.586-10.014,2.324-13.95c2.363-5.354,5.957-9.655,9.91-13.91
				c0.975-1.051-0.594-2.625-1.57-1.572c-4.379,4.715-8.168,9.454-10.715,15.408c-1.945,4.548-3.959,10.322-1.871,15.146
				c0.188,0.424,0.836,0.665,1.256,0.512c3.184-1.166,3.936-4.672,4.295-7.695c0.504-4.199,0.088-8.592-1.711-12.443
				c-0.467-1.006-1.199-1.909-1.748-2.875c-0.801-1.404-0.152-2.494,0.525-3.751c0.838-1.558,1.711-3.044,1.828-4.843
				c0.287-4.413-5.363-3.247-7.85-2.729C129.354,6.145,129.945,8.289,131.344,7.996L131.344,7.996z"/>
		</g>
		<g>
			<path fill="#231815" d="M156.1,10.01c6.734-0.48,13.275-2.281,19.99-2.899c-0.096-0.729-0.197-1.458-0.295-2.186
				c-1.336,0.251-2.623,0.612-3.918,1.017c-1.367,0.422-0.783,2.565,0.588,2.143c1.299-0.403,2.584-0.764,3.922-1.016
				c1.227-0.23,0.949-2.299-0.297-2.183c-6.715,0.62-13.258,2.423-19.99,2.901C154.68,7.891,154.67,10.113,156.1,10.01L156.1,10.01z
				"/>
		</g>
		<g>
			<path fill="#231815" d="M166.646,7.946c-4.184,3.057-5.664,7.573-7.064,12.358c0.711,0.195,1.428,0.395,2.143,0.59
				c0.451-2.708,1.209-4.328,3.588-5.73c1.584-0.932,4.402-2.033,5.832-0.35c-0.057-0.449-0.117-0.898-0.174-1.347
				c-1.744,3.494-7.061,4.224-10.373,5.499c-1.338,0.515-0.828,2.396,0.592,2.144c0.152,0.003,0.307,0.009,0.459,0.013
				c-0.32-0.557-0.639-1.115-0.961-1.674c-0.348,0.666-0.49,1.381-0.865,2.034c-0.695,1.226-1.973,2.19-3.086,3.005
				c-2.07,1.518-4.428,2.738-6.799,3.702c0.287,0.679,0.572,1.354,0.855,2.033c5.346-2.788,11.434-4.452,17.301-5.813
				c2.561-0.594,5.281-1.211,7.93-0.982c2.977,0.26-2.25,4.03-2.922,4.477c-1.896,1.257-3.951,2.244-5.818,3.543
				c-2.793,1.942-5.549,4.155-8.742,5.412c-0.557,0.215-1.139,0.369-1.738,0.411c-1.467,0.107-0.662-1.979-0.195-2.546
				c1.033-1.258,3.941-1.346,5.408-1.541c3.861-0.516,8.002-1.969,11.877-1.51c-0.186-0.691-0.373-1.379-0.559-2.071
				c-0.072,0.005-0.146,0.016-0.219,0.022c-1.432-0.09-1.424,2.133,0,2.222c0.553,0.032,0.84-0.087,1.338-0.327
				c1.113-0.534,0.414-1.953-0.561-2.07c-2.818-0.33-5.518,0.422-8.256,0.998c-2.229,0.467-4.523,0.57-6.764,1.008
				c-1.514,0.299-3.412,0.845-4.283,2.248c-0.83,1.344-1.336,3.344-0.254,4.705c2.371,2.986,7.572-0.639,9.791-2.073
				c2.977-1.924,5.828-3.927,8.871-5.747c2.213-1.32,6.732-3.858,6.166-7.048c-0.488-2.722-3.928-2.474-6.006-2.271
				c-7.322,0.719-15.438,3.195-22.068,6.314c-0.477,0.229-0.951,0.471-1.418,0.719c-1.104,0.576-0.318,2.511,0.857,2.033
				c2.578-1.052,5.041-2.337,7.328-3.927c1.152-0.802,2.221-1.724,3.139-2.784c0.828-0.951,1.053-1.989,1.613-3.052
				c0.42-0.803-0.119-1.579-0.961-1.673c-0.391-0.043-0.666-0.002-1.051,0.066c0.197,0.716,0.396,1.428,0.592,2.144
				c3.896-1.501,9.637-2.387,11.699-6.522c0.24-0.479,0.174-0.939-0.17-1.344c-1.951-2.293-5.148-1.509-7.557-0.488
				c-3.424,1.45-4.986,3.977-5.58,7.549c-0.23,1.387,1.732,1.992,2.143,0.59c1.209-4.13,2.398-8.366,6.045-11.029
				C168.914,9.028,167.811,7.1,166.646,7.946L166.646,7.946z"/>
		</g>
		<g>
			<path fill="#231815" d="M167.928,2.085c-0.01-0.065-0.023-0.137-0.035-0.202c0.139-0.979-0.689-1.703-1.635-1.258
				c-1.166,0.56-0.863,3.051-0.84,4.053c0.057,2.505,0.133,4.998,0.1,7.505c-0.08,5.5-0.479,10.987-0.803,16.478
				c-0.348,5.84-0.352,11.682-0.631,17.527c-0.451,9.327-1.984,25.214-14.809,23.844c-1.428-0.15-1.412,2.074,0,2.225
				c12.436,1.325,15.742-11.754,16.709-21.537c0.523-5.307,0.439-10.635,0.637-15.958c0.195-5.218,0.602-10.433,0.871-15.647
				c0.148-2.885,0.24-5.771,0.268-8.658c0.01-1.407-0.016-2.814-0.051-4.222c-0.006-0.308-0.195-3.751-0.326-3.687
				c-0.543-0.418-1.088-0.838-1.635-1.258c-0.035,0.279-0.076,0.518-0.041,0.796C165.875,3.488,168.1,3.506,167.928,2.085
				L167.928,2.085z"/>
		</g>
		<g>
			<path fill="#231815" d="M197.227,3.01c-0.557,2.473-2.975,5.307-2.26,7.961c0.938,3.479,4.906,1.539,7.189,1.045
				c-0.471-0.359-0.939-0.717-1.41-1.073c0.031,1.463-1.752,3.238-2.48,4.433c-0.99,1.615-1.992,3.217-3.029,4.801
				c-1.363,2.091-2.891,4.063-4.299,6.125c-1.014,1.484-5.697,9.004-8.012,7.533c-1.217-0.771-2.328,1.152-1.123,1.918
				c3.896,2.478,8.385-4.574,10.174-7.069c1.75-2.44,3.518-4.886,5.18-7.384c1.346-2.029,2.607-4.107,3.873-6.186
				c0.857-1.404,1.975-2.42,1.941-4.171c-0.014-0.749-0.697-1.228-1.408-1.073c-0.904,0.198-1.771,0.541-2.664,0.797
				c-1.615,0.46-1.904-0.326-1.541-1.703c0.488-1.849,1.596-3.501,2.014-5.362C199.686,2.205,197.541,1.612,197.227,3.01
				L197.227,3.01z"/>
		</g>
		<g>
			<path fill="#231815" d="M191.301,16.13c1.809,1.155,3.166,2.834,4.889,4.1c1.965,1.442,4.117,2.593,5.787,4.405
				c0.969,1.055,2.539-0.518,1.568-1.57c-1.48-1.61-3.305-2.747-5.113-3.955c-2.162-1.443-3.813-3.494-6.008-4.898
				C191.213,13.434,190.1,15.359,191.301,16.13L191.301,16.13z"/>
		</g>
		<g>
			<path fill="#231815" d="M203.746,16.85c-0.916,1.563-1.463,3.409-2.238,5.049c-1.336,2.834-3.162,5.426-4.848,8.06
				c-0.686,1.073,0.877,2.249,1.746,1.348c1.779-1.846,3.629-3.628,5.613-5.256c1.18-0.964,2.49-1.931,3.914-2.505
				c1.6-0.645,1.82,0.15,1.494,1.614c-0.607,2.752-2.168,5.325-3.525,7.769c-2.25,4.061-4.721,8.25-8.404,11.177
				c0.633,0.262,1.266,0.522,1.898,0.785c-0.066-0.352-0.061-0.7,0.02-1.048c0.184-1.42-2.043-1.402-2.223,0
				c-0.078,0.348-0.086,0.696-0.02,1.048c0.086,1.021,1.121,1.4,1.896,0.785c4.037-3.21,6.688-7.894,9.152-12.342
				c1.619-2.928,4.041-6.769,3.496-10.261c-0.545-3.482-5.109-1.485-6.777-0.433c-3.025,1.907-5.635,4.532-8.105,7.095
				c0.582,0.448,1.162,0.897,1.744,1.346c1.693-2.646,3.436-5.251,4.846-8.061c0.822-1.629,1.326-3.484,2.244-5.05
				C206.396,16.734,204.477,15.615,203.746,16.85L203.746,16.85z"/>
		</g>
		<g>
			<path fill="#231815" d="M199.615,30.454c1.516,0.138,3.205,2.032,4.258,2.976c1.25,1.121,2.428,2.316,3.604,3.511
				c1.012,1.021,2.58-0.551,1.572-1.571c-1.473-1.49-2.955-2.966-4.543-4.336c-1.375-1.188-3.004-2.631-4.891-2.803
				C198.188,28.103,198.199,30.327,199.615,30.454L199.615,30.454z"/>
		</g>
	</g>
	<g>
		<path fill="#231815" d="M18.457,20.383c-1.45-2.404-4.42-3.84-7.945-3.84c-1.841,0-3.785,0.414-5.484,1.222
			c-0.102-0.304-0.262-0.577-0.485-0.809c-0.436-0.452-1.076-0.711-1.757-0.711c-1.195,0-2.433,0.806-2.49,2.345
			c-0.157,4.294-0.201,8.66-0.244,12.884c-0.015,1.5-0.03,3.001-0.05,4.5c-0.009,0.663,0.214,1.243,0.644,1.68
			c0.443,0.448,1.085,0.706,1.764,0.706c0.994,0,1.996-0.564,2.328-1.635c0.385,0.357,0.906,0.596,1.572,0.596
			c0.006,0,0.051,0,0.056,0c5.652-0.109,9.383-1.939,11.405-5.594C19.501,28.596,20.256,23.369,18.457,20.383z M4.91,31.498
			c0.023-2.303,0.052-4.647,0.094-6.998c0.025-0.076,0.053-0.148,0.071-0.227c0.433-1.877,2.96-2.859,5.232-2.859
			c1.788,0,3.289,0.564,4.013,1.511c0.848,1.106,0.1,4.544-0.787,6.426c-1.253,2.657-4.506,3.058-7.2,3.11
			c-0.586,0.013-1.067,0.203-1.439,0.498C4.898,32.474,4.905,31.984,4.91,31.498z M6.308,36.537L6.308,36.537v0.004V36.537z"/>
		<path fill="#231815" d="M30.661,14.945c0.094-1.139,0.171-2.277,0.205-3.41c0.021-0.664-0.194-1.248-0.62-1.687
			c-0.438-0.452-1.08-0.709-1.76-0.709c-1.197,0-2.433,0.806-2.479,2.349c-0.035,1.162-0.116,2.33-0.217,3.498
			c-1.925,0.229-3.691,0.639-4.997,1.006c-1.193,0.336-1.88,1.395-1.709,2.635c0.171,1.244,1.145,2.146,2.314,2.146
			c0.228,0,0.461-0.032,0.694-0.098c0.864-0.243,1.94-0.51,3.084-0.711c-1.498,9.49-4.712,18.688-7.499,25.404
			c-0.502,0.436-0.775,1.059-0.775,1.779v0.52c0,1.439,1.372,2.445,2.603,2.445c0.885,0,1.621-0.489,1.968-1.307
			c3.24-7.615,7.023-18.203,8.629-29.033c3.393,0.561,3.524,2.848,3.57,3.668c0.31,5.417-1.541,12.047-5.503,19.705
			c-0.404,0.781-0.381,1.646,0.063,2.375c0.466,0.766,1.328,1.261,2.196,1.261c0.844,0,1.563-0.457,1.975-1.253
			c2.386-4.611,4.158-9.42,5.27-14.293c0.654-2.867,1.872-8.205,0.18-11.755C36.629,16.91,34.153,15.374,30.661,14.945z"/>
		<path fill="#231815" d="M70.74,18.195c0.028-0.19,0.042-0.387,0.022-0.596c-0.004-0.043-0.019-0.088-0.025-0.131
			c-0.008-2.359-0.025-4.717-0.027-7.076c-0.003-2.359-2.775-2.906-4.074-1.787c-0.507,0.436-0.786,1.071-0.785,1.789
			c0.001,1.76,0.015,3.52,0.02,5.281c-0.352,0.07-0.706,0.139-1.058,0.211c-1.306,0.266-2.611,0.531-3.921,0.771
			c-1.2,0.221-1.933,1.178-1.823,2.385c0.104,1.151,1.017,2.375,2.5,2.375c0.154,0,0.314-0.013,0.479-0.043
			c1.284-0.235,2.563-0.496,3.841-0.757c0.006,1.422,0.009,2.844,0.016,4.267c-0.371,0.074-0.744,0.146-1.115,0.223
			c-1.299,0.264-2.596,0.529-3.898,0.768c-0.454,0.082-0.84,0.271-1.14,0.539c0.254-2.209,0.025-4.438-0.936-6.031
			c-1.449-2.404-4.419-3.84-7.945-3.84c-1.841,0-3.784,0.414-5.483,1.222c-0.102-0.304-0.262-0.577-0.486-0.809
			c-0.436-0.452-1.076-0.711-1.757-0.711c-1.195,0-2.433,0.806-2.49,2.345c-0.158,4.315-0.202,8.703-0.244,12.947
			c-0.016,1.479-0.03,2.958-0.05,4.437c-0.008,0.663,0.215,1.243,0.646,1.68c0.441,0.448,1.085,0.706,1.762,0.706
			c0.995,0,1.996-0.564,2.328-1.635c0.385,0.357,0.905,0.596,1.572,0.596c0.005,0,0.05,0,0.055,0
			c5.652-0.109,9.383-1.939,11.406-5.594c0.445-0.805,0.824-1.748,1.114-2.756c0.34,0.893,1.149,1.664,2.325,1.664
			c0.154,0,0.314-0.014,0.479-0.045c1.295-0.236,2.585-0.5,3.875-0.763c0,0.032,0,0.065,0,0.098
			c0.008,1.519,0.009,3.036,0.017,4.555c-0.373,0.075-0.746,0.147-1.118,0.224c-1.309,0.267-2.617,0.533-3.932,0.773
			c-1.2,0.221-1.933,1.178-1.823,2.385c0.104,1.153,1.017,2.376,2.5,2.376c0.154,0,0.314-0.013,0.479-0.044
			c1.308-0.239,2.61-0.504,3.912-0.77c0.015,3.394,0.037,6.787,0.039,10.182c0,1.56,1.222,2.376,2.43,2.376
			c0.618,0,1.202-0.209,1.643-0.588c0.507-0.437,0.787-1.071,0.786-1.788c-0.003-6.59-0.039-13.179-0.073-19.769
			C70.763,25.957,70.754,22.076,70.74,18.195z M45.27,31.552c0.023-2.319,0.052-4.683,0.095-7.052
			c0.024-0.074,0.053-0.147,0.071-0.227c0.433-1.877,2.96-2.859,5.232-2.859c1.788,0,3.289,0.564,4.013,1.511
			c0.848,1.106,0.1,4.545-0.787,6.426c-1.253,2.657-4.506,3.058-7.2,3.11c-0.586,0.013-1.067,0.203-1.44,0.498
			C45.259,32.49,45.265,32.021,45.27,31.552z M46.669,36.537L46.669,36.537v0.004V36.537z"/>
		<path fill="#231815" d="M106.52,33.176c-0.01,0-0.099,0.002-0.107,0.002c-2.486,0.096-4.989,0.215-7.482,0.344
			c-0.007-1.828-0.03-3.66-0.097-5.48c-0.058-1.54-1.296-2.346-2.49-2.346c-0.681,0-1.322,0.26-1.758,0.711
			c-0.424,0.442-0.635,1.026-0.611,1.692c0.069,1.884,0.093,3.787,0.098,5.687c-0.962,0.055-1.924,0.109-2.875,0.162
			c-2.958,0.168-5.917,0.334-8.876,0.485c3.272-4.28,6.158-7.824,9.007-11.069c0.662-0.754,0.823-1.83,0.41-2.742
			c-0.387-0.856-1.188-1.369-2.171-1.369c-3.397,0.037-6.823,0.232-10.162,0.436v-4.443c0-3.119-4.859-3.119-4.859,0v33.425
			c0,1.56,1.223,2.376,2.431,2.376c1.206,0,2.429-0.816,2.429-2.376V39.43c3.98-0.182,7.986-0.405,11.881-0.625
			c0.914-0.053,1.838-0.104,2.762-0.156c-0.007,0.689-0.015,1.38-0.023,2.063c-0.024,1.98-0.049,3.961-0.051,5.94
			c-0.001,0.661,0.228,1.24,0.661,1.675c0.446,0.446,1.09,0.702,1.766,0.702c1.207,0,2.43-0.815,2.432-2.374
			c0.003-1.975,0.027-3.949,0.052-5.925c0.009-0.776,0.018-1.561,0.026-2.345c2.52-0.132,5.051-0.252,7.561-0.35
			c1.553-0.061,2.366-1.357,2.342-2.545C108.793,34.34,107.996,33.176,106.52,33.176z M79.406,30.287v-5.738
			c1.577-0.096,3.177-0.191,4.78-0.268C82.664,26.127,81.097,28.096,79.406,30.287z"/>
	</g>
	<g>
		<path fill="#40210F" d="M122.393,57.799c-0.012,0.419-0.283,0.775-0.824,1.083c-0.541,0.296-1.18,0.442-1.906,0.442
			c-1.254,0-2.287-0.43-3.1-1.303c-0.811-0.873-1.217-1.956-1.217-3.26c0-1.353,0.406-2.459,1.217-3.32
			c0.813-0.861,1.846-1.291,3.1-1.291c0.727,0,1.365,0.146,1.906,0.455c0.541,0.295,0.813,0.651,0.824,1.057
			c0,0.529-0.344,1.009-0.799,1.021c-0.234,0.012-0.504-0.085-0.824-0.271c-0.309-0.196-0.676-0.295-1.096-0.295
			c-0.699,0-1.254,0.246-1.66,0.738c-0.404,0.479-0.613,1.119-0.613,1.906c0,0.75,0.209,1.378,0.613,1.869
			c0.406,0.48,0.961,0.727,1.66,0.727c0.42,0,0.787-0.1,1.096-0.283c0.32-0.197,0.59-0.295,0.824-0.283
			C122.049,56.803,122.393,57.295,122.393,57.799z"/>
		<path fill="#40210F" d="M131.107,51.429c-0.873-0.849-1.943-1.278-3.223-1.278s-2.361,0.43-3.234,1.278s-1.303,1.943-1.303,3.296
			c0,1.341,0.43,2.447,1.303,3.297c0.873,0.848,1.943,1.266,3.234,1.266s2.361-0.418,3.234-1.266
			c0.873-0.85,1.305-1.956,1.305-3.297C132.424,53.385,131.98,52.277,131.107,51.429z M129.631,56.594
			c-0.441,0.48-1.02,0.714-1.746,0.714c-0.725,0-1.303-0.233-1.758-0.714c-0.443-0.479-0.664-1.106-0.664-1.881
			c0-0.787,0.221-1.414,0.664-1.895c0.455-0.479,1.033-0.713,1.758-0.713c0.727,0,1.305,0.233,1.746,0.713
			c0.455,0.48,0.678,1.107,0.678,1.895C130.309,55.487,130.086,56.115,129.631,56.594z"/>
		<path fill="#40210F" d="M135.615,55.599v2.274c0,0.851-0.418,1.205-0.996,1.205c-0.59,0-0.996-0.354-0.996-1.205v-4.451
			c0-0.91,0.27-1.648,0.799-2.227s1.254-0.861,2.178-0.861h1.758c0.578,0,0.984,0.32,0.984,0.91c0,0.604-0.418,0.923-0.959,0.923
			h-1.514c-0.787,0-1.254,0.479-1.254,1.255v0.332h2.373c0.541,0,0.959,0.319,0.959,0.922s-0.418,0.923-0.959,0.923H135.615z"/>
		<path fill="#40210F" d="M142.424,55.599v2.274c0,0.851-0.418,1.205-0.996,1.205c-0.59,0-0.996-0.354-0.996-1.205v-4.451
			c0-0.91,0.271-1.648,0.799-2.227c0.529-0.578,1.256-0.861,2.178-0.861h1.758c0.578,0,0.984,0.32,0.984,0.91
			c0,0.604-0.418,0.923-0.959,0.923h-1.512c-0.787,0-1.256,0.479-1.256,1.255v0.332h2.375c0.541,0,0.959,0.319,0.959,0.922
			s-0.418,0.923-0.959,0.923H142.424z"/>
		<path fill="#40210F" d="M149.232,57.246h3.125c0.602,0,0.959,0.32,0.959,0.91c0,0.603-0.357,0.922-0.959,0.922h-4.156
			c-0.689,0-0.961-0.146-0.961-0.836V51.17c0-0.688,0.271-0.836,0.961-0.836h4.045c0.604,0,0.959,0.32,0.959,0.91
			c0,0.604-0.355,0.923-0.959,0.923h-3.014v1.587h2.73c0.604,0,0.961,0.319,0.961,0.922s-0.357,0.923-0.961,0.923h-2.73V57.246z"/>
		<path fill="#40210F" d="M156.521,57.246h3.125c0.602,0,0.959,0.32,0.959,0.91c0,0.603-0.357,0.922-0.959,0.922h-4.158
			c-0.688,0-0.959-0.146-0.959-0.836V51.17c0-0.688,0.271-0.836,0.959-0.836h4.047c0.604,0,0.959,0.32,0.959,0.91
			c0,0.604-0.355,0.923-0.959,0.923h-3.014v1.587h2.73c0.604,0,0.959,0.319,0.959,0.922s-0.355,0.923-0.959,0.923h-2.73V57.246z"/>
		<path fill="#40210F" d="M171.678,56.558c0-0.308-0.1-0.542-0.295-0.688c-0.186-0.148-0.555-0.32-1.107-0.518
			c-1.514-0.541-2.287-1.328-2.287-2.607c0-0.799,0.283-1.438,0.848-1.918c0.566-0.479,1.279-0.713,2.141-0.713
			c1.377,0,2.262,0.541,2.262,1.279c0,0.602-0.332,0.934-0.885,0.934c-0.16,0-0.357-0.061-0.566-0.196s-0.467-0.196-0.762-0.196
			c-0.59,0-0.971,0.282-0.971,0.811c0,0.396,0.393,0.738,1.168,1.021c0.922,0.344,1.561,0.701,1.943,1.083
			c0.381,0.38,0.578,0.922,0.578,1.647c0,0.873-0.309,1.562-0.91,2.066c-0.604,0.504-1.365,0.762-2.301,0.762
			c-0.775,0-1.402-0.135-1.881-0.418c-0.48-0.283-0.715-0.615-0.715-0.996c0-0.541,0.395-0.959,0.984-0.959
			c0.16,0,0.395,0.086,0.701,0.258c0.309,0.16,0.627,0.246,0.947,0.246C171.297,57.455,171.678,57.062,171.678,56.558z"/>
		<path fill="#40210F" d="M176.814,55.599v2.274c0,0.851-0.418,1.205-0.996,1.205c-0.592,0-0.996-0.354-0.996-1.205v-6.334
			c0-0.848,0.404-1.205,0.996-1.205c0.578,0,0.996,0.357,0.996,1.205v2.215h2.926v-2.215c0-0.848,0.418-1.205,0.996-1.205
			s0.996,0.357,0.996,1.205v6.334c0,0.851-0.418,1.205-0.996,1.205s-0.996-0.354-0.996-1.205v-2.274H176.814z"/>
		<path fill="#40210F" d="M190.693,51.429c-0.873-0.849-1.943-1.278-3.221-1.278c-1.279,0-2.361,0.43-3.236,1.278
			c-0.873,0.849-1.303,1.943-1.303,3.296c0,1.341,0.43,2.447,1.303,3.297c0.875,0.848,1.943,1.266,3.236,1.266
			c1.291,0,2.361-0.418,3.234-1.266c0.873-0.85,1.303-1.956,1.303-3.297C192.01,53.385,191.566,52.277,190.693,51.429z
			 M189.219,56.594c-0.443,0.48-1.021,0.714-1.746,0.714c-0.727,0-1.305-0.233-1.76-0.714c-0.443-0.479-0.664-1.106-0.664-1.881
			c0-0.787,0.221-1.414,0.664-1.895c0.455-0.479,1.033-0.713,1.76-0.713c0.725,0,1.303,0.233,1.746,0.713
			c0.455,0.48,0.676,1.107,0.676,1.895C189.895,55.487,189.674,56.115,189.219,56.594z"/>
		<path fill="#40210F" d="M195.201,56.274v1.599c0,0.851-0.418,1.205-0.996,1.205c-0.59,0-0.996-0.354-0.996-1.205V51.17
			c0-0.688,0.357-0.836,0.959-0.836h1.611c2.129,0,3.32,1.156,3.32,2.977c0,1.869-1.057,2.964-3.283,2.964H195.201z M195.201,54.467
			h0.615c0.898,0,1.365-0.381,1.365-1.156c0-0.787-0.43-1.254-1.365-1.254h-0.615V54.467z"/>
	</g>
</g>
</svg>
