<?xml version="1.0" encoding="utf-8"?>
<!-- Generator: Adobe Illustrator 16.0.0, SVG Export Plug-In . SVG Version: 6.00 Build 0)  -->
<!DOCTYPE svg PUBLIC "-//W3C//DTD SVG 1.1//EN" "http://www.w3.org/Graphics/SVG/1.1/DTD/svg11.dtd">
<svg version="1.1" id="圖層_1" xmlns="http://www.w3.org/2000/svg" xmlns:xlink="http://www.w3.org/1999/xlink" x="0px" y="0px"
	 width="197px" height="37px" viewBox="0 0 197 37" enable-background="new 0 0 197 37" xml:space="preserve">
<g>
	<g>
		
			<polygon fill-rule="evenodd" clip-rule="evenodd" fill="#FFFFFF" stroke="#000000" stroke-linecap="round" stroke-linejoin="round" stroke-miterlimit="10" points="
			195.38,1.183 176.722,20.126 162.157,10.175 		"/>
		
			<polygon fill-rule="evenodd" clip-rule="evenodd" fill="#FFFFFF" stroke="#000000" stroke-linecap="round" stroke-linejoin="round" stroke-miterlimit="10" points="
			159.783,9.104 152.751,4.663 195.38,1.183 		"/>
		
			<polygon fill-rule="evenodd" clip-rule="evenodd" fill="#FFFFFF" stroke="#000000" stroke-linecap="round" stroke-linejoin="round" stroke-miterlimit="10" points="
			159.783,9.104 162.169,24.468 162.157,10.175 195.38,1.183 		"/>
		
			<polygon fill-rule="evenodd" clip-rule="evenodd" fill="#FFFFFF" stroke="#000000" stroke-linecap="round" stroke-linejoin="round" stroke-miterlimit="10" points="
			171.887,16.802 162.169,24.468 162.157,10.175 		"/>
	</g>
	<g>
		<g>
			<path fill="none" stroke="#000000" stroke-miterlimit="10" d="M0,11.058c0,0,0.525,1.371,1.983,3.463"/>
			<path fill="none" stroke="#000000" stroke-miterlimit="10" stroke-dasharray="8.2842,8.2842" d="M7.539,20.638
				c7.145,6.266,20.476,13.486,44.421,14.587c46.115,2.121,61.52-18.042,94.295-21.015"/>
			<path fill="none" stroke="#000000" stroke-miterlimit="10" d="M150.396,13.934c1.305-0.057,2.637-0.085,4-0.085"/>
		</g>
	</g>
</g>
</svg>
