<?xml version="1.0" encoding="utf-8"?>
<!-- Generator: Adobe Illustrator 16.0.0, SVG Export Plug-In . SVG Version: 6.00 Build 0)  -->
<!DOCTYPE svg PUBLIC "-//W3C//DTD SVG 1.1//EN" "http://www.w3.org/Graphics/SVG/1.1/DTD/svg11.dtd">
<svg version="1.1" id="圖層_1" xmlns="http://www.w3.org/2000/svg" xmlns:xlink="http://www.w3.org/1999/xlink" x="0px" y="0px"
	 width="30px" height="40px" viewBox="0 0 30 40" enable-background="new 0 0 30 40" xml:space="preserve">
<g>
	<path fill-rule="evenodd" clip-rule="evenodd" d="M8.445,18.977c0-0.345,0-0.593,0-0.839c0-2.93-0.014-5.858,0.006-8.786
		c0.011-1.573,1.078-2.729,2.623-2.922c1.289-0.162,2.617,0.755,3.02,2.081c0.156,0.515,0.096,1.044,0.096,1.566
		c0,0.279,0.08,0.374,0.355,0.299c1.005-0.275,1.749,0.333,2.502,0.808c0.309,0.194,0.471,0.239,0.813,0.077
		c1.709-0.808,2.75-0.486,3.761,1.149c0.173,0.28,0.315,0.232,0.526,0.136c1.462-0.658,3.131,0.183,3.55,1.788
		c0.012,0.044,0.016,0.091,0.018,0.136c0.14,3.013,0.413,6.055-0.126,9.025c-0.633,3.484-3.518,5.842-7.082,6.073
		c-1.526,0.101-3.066,0.06-4.597,0.003c-1.83-0.066-3.364-0.912-4.768-2.02c-1.721-1.358-3.441-2.719-5.144-4.1
		c-0.937-0.76-1.506-1.718-1.308-2.98c0.184-1.169,0.866-1.936,1.98-2.308c0.649-0.216,1.305-0.183,1.943,0.069
		C7.198,18.464,7.78,18.706,8.445,18.977z"/>
	<path fill-rule="evenodd" clip-rule="evenodd" fill="#FEFEFE" d="M10.333,14.914c0-1.832-0.009-3.663,0.005-5.493
		c0.005-0.655,0.43-1.091,0.988-1.091c0.541,0,0.923,0.39,0.99,1.023c0.02,0.181,0.008,0.366,0.008,0.55
		c0,1.831,0.015,3.662-0.01,5.493c-0.006,0.472,0.052,0.682,0.613,0.662c1.268-0.044,1.268-0.007,1.268-1.299
		c0-0.481-0.013-0.962,0.003-1.442c0.022-0.674,0.396-1.104,0.957-1.127c0.577-0.024,1.009,0.426,1.028,1.13
		c0.023,0.776,0.017,1.556,0,2.334c-0.006,0.288,0.071,0.379,0.377,0.396c1.506,0.086,1.505,0.098,1.506-1.403
		c0-0.32-0.02-0.642,0.007-0.961c0.051-0.64,0.419-0.987,1.001-0.977c0.568,0.009,0.941,0.379,0.967,1.018
		c0.025,0.639,0.018,1.282,0.002,1.922c-0.007,0.283,0.055,0.437,0.375,0.396c0.157-0.021,0.319-0.004,0.48-0.004
		c0.953,0.001,0.959,0.001,1.052-0.964c0.058-0.598,0.403-0.938,0.974-0.942c0.541-0.005,0.957,0.34,0.957,0.882
		c-0.006,2.606,0.247,5.229-0.105,7.814c-0.357,2.637-2.418,4.551-5.068,4.795c-1.658,0.152-3.343,0.104-5.008,0.01
		c-1.368-0.078-2.473-0.865-3.52-1.702c-1.643-1.312-3.292-2.614-4.936-3.925c-0.16-0.127-0.32-0.263-0.448-0.422
		c-0.324-0.404-0.342-0.848-0.042-1.266c0.291-0.402,0.709-0.489,1.16-0.307c0.97,0.392,1.929,0.809,2.898,1.203
		c0.95,0.385,1.517,0.006,1.52-1.016C10.336,18.438,10.333,16.675,10.333,14.914z"/>
</g>
<g>
	<path d="M5.873,12.828c-0.163,0-0.326-0.059-0.455-0.178c-1.404-1.293-2.209-3.129-2.209-5.037c0-3.775,3.071-6.846,6.846-6.846
		s6.846,3.071,6.846,6.846c0,0.464-0.047,0.927-0.139,1.378c-0.075,0.364-0.431,0.596-0.794,0.524
		c-0.363-0.075-0.598-0.43-0.523-0.793c0.074-0.363,0.111-0.736,0.111-1.109c0-3.033-2.468-5.501-5.501-5.501
		S4.554,4.581,4.554,7.614c0,1.533,0.647,3.008,1.775,4.047c0.273,0.252,0.291,0.677,0.039,0.951
		C6.235,12.755,6.055,12.828,5.873,12.828z"/>
</g>
<g>
	<path d="M7.289,10.44c-0.229,0.024-0.463-0.069-0.61-0.267c-0.462-0.62-0.75-1.356-0.831-2.129
		c-0.25-2.372,1.476-4.504,3.847-4.754c1.667-0.176,3.301,0.64,4.164,2.078c0.191,0.318,0.088,0.731-0.23,0.923
		c-0.319,0.19-0.732,0.087-0.923-0.231c-0.595-0.991-1.721-1.553-2.87-1.432C8.202,4.8,7.013,6.27,7.185,7.904
		C7.241,8.436,7.439,8.943,7.757,9.37c0.222,0.297,0.161,0.719-0.137,0.94C7.52,10.386,7.405,10.428,7.289,10.44z"/>
</g>
<polygon points="15.79,31.178 19.852,36.886 11.991,36.701 "/>
</svg>
