<?xml version="1.0" encoding="utf-8"?>
<!-- Generator: Adobe Illustrator 16.0.0, SVG Export Plug-In . SVG Version: 6.00 Build 0)  -->
<!DOCTYPE svg PUBLIC "-//W3C//DTD SVG 1.1//EN" "http://www.w3.org/Graphics/SVG/1.1/DTD/svg11.dtd">
<svg version="1.1" id="圖層_1" xmlns="http://www.w3.org/2000/svg" xmlns:xlink="http://www.w3.org/1999/xlink" x="0px" y="0px"
	 width="41px" height="41px" viewBox="0 0 41 41" enable-background="new 0 0 41 41" xml:space="preserve">
<g id="jzkxwJ_1_">
	<g>
		<path fill-rule="evenodd" clip-rule="evenodd" fill="#F15A24" d="M20.774,40.826C9.574,40.988,0.319,32.037,0.167,20.74
			C0.017,9.589,9.038,0.345,20.18,0.173c11.06-0.172,20.367,8.709,20.648,19.719C41.121,31.334,32.078,40.682,20.774,40.826z
			 M21.906,23.898c-1.686,1.686-3.286,3.279-4.876,4.881c-0.826,0.832-0.824,1.775-0.008,2.607c0.713,0.725,1.434,1.441,2.153,2.158
			c0.87,0.865,1.84,0.865,2.711-0.008c3.881-3.883,7.758-7.768,11.635-11.654c0.898-0.9,0.908-1.85,0.02-2.737
			c-3.891-3.893-7.783-7.782-11.678-11.672C20.998,6.61,20.059,6.61,19.19,7.466c-0.713,0.703-1.424,1.41-2.131,2.12
			c-0.836,0.838-0.829,1.847,0.006,2.68c1.498,1.495,2.995,2.991,4.492,4.488c0.094,0.094,0.178,0.198,0.322,0.359
			c-0.23,0-0.381,0-0.531,0c-4.191,0-8.382-0.002-12.574,0.001c-1.117,0.001-1.823,0.705-1.828,1.822
			c-0.006,0.975-0.002,1.948-0.002,2.92c0,1.408,0.633,2.041,2.043,2.041c4.121,0,8.241,0,12.363,0
			C21.498,23.898,21.648,23.898,21.906,23.898z"/>
		<path fill-rule="evenodd" clip-rule="evenodd" fill="#FFFFFF" d="M21.906,23.898c-0.258,0-0.408,0-0.557,0
			c-4.122,0-8.242,0-12.363,0c-1.41,0-2.043-0.633-2.043-2.041c0-0.973-0.004-1.945,0.002-2.92c0.005-1.117,0.711-1.821,1.828-1.822
			c4.191-0.003,8.383-0.001,12.574-0.001c0.15,0,0.301,0,0.531,0c-0.145-0.161-0.229-0.266-0.322-0.359
			c-1.497-1.497-2.994-2.993-4.492-4.488c-0.835-0.833-0.842-1.842-0.006-2.68c0.707-0.71,1.418-1.417,2.131-2.12
			c0.869-0.856,1.808-0.856,2.673,0.008c3.895,3.89,7.787,7.779,11.678,11.672c0.889,0.887,0.879,1.836-0.02,2.737
			c-3.877,3.887-7.754,7.771-11.635,11.654c-0.871,0.873-1.841,0.873-2.711,0.008c-0.72-0.717-1.44-1.434-2.153-2.158
			c-0.816-0.832-0.818-1.775,0.008-2.607C18.621,27.178,20.22,25.584,21.906,23.898z"/>
	</g>
</g>
<g id="jzkxwJ_2_">
	<g>
		<path fill-rule="evenodd" clip-rule="evenodd" fill="#999999" d="M20.774,40.836C9.574,40.998,0.319,32.047,0.167,20.75
			C0.018,9.599,9.038,0.354,20.181,0.183c11.061-0.172,20.367,8.709,20.648,19.719C41.121,31.344,32.079,40.691,20.774,40.836z
			 M21.906,23.908c-1.686,1.686-3.285,3.279-4.876,4.881c-0.826,0.832-0.824,1.775-0.008,2.607c0.713,0.725,1.434,1.441,2.153,2.158
			c0.87,0.865,1.84,0.865,2.712-0.008c3.88-3.883,7.758-7.768,11.635-11.654c0.898-0.901,0.907-1.85,0.02-2.737
			c-3.891-3.893-7.783-7.782-11.679-11.672c-0.865-0.864-1.804-0.864-2.673-0.008c-0.713,0.703-1.424,1.41-2.131,2.12
			c-0.836,0.838-0.829,1.847,0.006,2.68c1.498,1.495,2.995,2.991,4.491,4.488c0.095,0.094,0.179,0.198,0.323,0.359
			c-0.231,0-0.381,0-0.531,0c-4.191,0-8.383-0.002-12.574,0.001c-1.117,0.001-1.823,0.705-1.828,1.822
			c-0.006,0.975-0.002,1.948-0.002,2.921c0,1.408,0.633,2.041,2.043,2.041c4.121,0,8.241,0,12.362,0
			C21.499,23.908,21.648,23.908,21.906,23.908z"/>
		<path fill-rule="evenodd" clip-rule="evenodd" fill="#FFFFFF" d="M21.906,23.908c-0.258,0-0.407,0-0.557,0
			c-4.121,0-8.241,0-12.362,0c-1.41,0-2.043-0.633-2.043-2.041c0-0.973-0.004-1.946,0.002-2.921
			c0.005-1.117,0.711-1.821,1.828-1.822c4.191-0.003,8.383-0.001,12.574-0.001c0.15,0,0.3,0,0.531,0
			c-0.145-0.161-0.229-0.266-0.323-0.359c-1.496-1.497-2.993-2.993-4.491-4.488c-0.835-0.833-0.842-1.842-0.006-2.68
			c0.707-0.71,1.418-1.417,2.131-2.12c0.869-0.856,1.808-0.856,2.673,0.008c3.896,3.89,7.788,7.779,11.679,11.672
			c0.888,0.887,0.879,1.836-0.02,2.737c-3.877,3.887-7.755,7.771-11.635,11.654c-0.872,0.873-1.842,0.873-2.712,0.008
			c-0.72-0.717-1.44-1.434-2.153-2.158c-0.816-0.832-0.818-1.775,0.008-2.607C18.621,27.188,20.221,25.594,21.906,23.908z"/>
	</g>
</g>
</svg>
