<?xml version="1.0" encoding="utf-8"?>
<!-- Generator: Adobe Illustrator 16.0.0, SVG Export Plug-In . SVG Version: 6.00 Build 0)  -->
<!DOCTYPE svg PUBLIC "-//W3C//DTD SVG 1.1//EN" "http://www.w3.org/Graphics/SVG/1.1/DTD/svg11.dtd">
<svg version="1.1" id="圖層_1" xmlns="http://www.w3.org/2000/svg" xmlns:xlink="http://www.w3.org/1999/xlink" x="0px" y="0px"
	 width="75px" height="17px" viewBox="0 0 75 17" enable-background="new 0 0 75 17" xml:space="preserve">
<g>
	<path d="M8.078,16.09c-0.298,0-0.584-0.168-0.722-0.454L0.425,1.145C0.234,0.746,0.404,0.269,0.802,0.077
		c0.396-0.189,0.875-0.021,1.066,0.377l6.931,14.491c0.19,0.398,0.022,0.876-0.376,1.067C8.312,16.065,8.194,16.09,8.078,16.09z"/>
</g>
<g>
	<path d="M66.921,16.09c-0.116,0-0.233-0.025-0.345-0.078c-0.398-0.191-0.567-0.668-0.377-1.066l6.932-14.492
		c0.191-0.398,0.668-0.566,1.066-0.376c0.398,0.19,0.566,0.668,0.377,1.067l-6.932,14.492C67.505,15.922,67.219,16.09,66.921,16.09z
		"/>
</g>
<g>
	<path d="M20.957,8.352l2.714,0.82c-0.182,0.761-0.469,1.396-0.861,1.906c-0.392,0.511-0.878,0.896-1.459,1.156
		s-1.32,0.389-2.218,0.389c-1.089,0-1.979-0.158-2.669-0.475s-1.286-0.873-1.788-1.67s-0.752-1.817-0.752-3.061
		c0-1.658,0.441-2.932,1.323-3.822c0.882-0.89,2.129-1.335,3.743-1.335c1.262,0,2.255,0.255,2.977,0.766s1.259,1.294,1.61,2.352
		L20.84,5.986c-0.096-0.305-0.196-0.529-0.301-0.67c-0.173-0.237-0.385-0.419-0.636-0.547s-0.531-0.191-0.841-0.191
		c-0.702,0-1.24,0.282-1.613,0.847c-0.283,0.419-0.424,1.077-0.424,1.973c0,1.11,0.168,1.872,0.506,2.284s0.811,0.617,1.422,0.617
		c0.592,0,1.04-0.166,1.343-0.498C20.6,9.468,20.82,8.984,20.957,8.352z"/>
	<path d="M24.648,8.844c0-1.108,0.374-2.021,1.121-2.738s1.757-1.077,3.028-1.077c1.454,0,2.552,0.421,3.295,1.265
		c0.597,0.679,0.896,1.515,0.896,2.509c0,1.116-0.37,2.031-1.111,2.744s-1.765,1.07-3.073,1.07c-1.167,0-2.11-0.297-2.83-0.889
		C25.09,10.994,24.648,10.033,24.648,8.844z M27.437,8.836c0,0.647,0.131,1.126,0.393,1.436c0.262,0.311,0.591,0.465,0.988,0.465
		c0.401,0,0.73-0.152,0.988-0.457c0.257-0.306,0.386-0.796,0.386-1.471c0-0.629-0.13-1.097-0.39-1.404s-0.581-0.461-0.964-0.461
		c-0.406,0-0.741,0.156-1.005,0.468S27.437,8.198,27.437,8.836z"/>
	<path d="M37.424,5.193h1.326V7.23h-1.326v5.223h-2.789V7.23h-1.039V5.193h1.039V4.865c0-0.296,0.032-0.622,0.096-0.978
		s0.184-0.646,0.359-0.872s0.421-0.408,0.738-0.547s0.78-0.208,1.391-0.208c0.488,0,1.197,0.057,2.127,0.171l-0.309,1.682
		c-0.332-0.055-0.602-0.082-0.807-0.082c-0.25,0-0.43,0.042-0.539,0.126s-0.188,0.218-0.232,0.4
		C37.436,4.657,37.424,4.869,37.424,5.193z"/>
	<path d="M43.221,5.193h1.326V7.23h-1.326v5.223h-2.789V7.23h-1.039V5.193h1.039V4.865c0-0.296,0.032-0.622,0.096-0.978
		c0.064-0.355,0.184-0.646,0.359-0.872s0.422-0.408,0.738-0.547s0.78-0.208,1.391-0.208c0.488,0,1.197,0.057,2.127,0.171
		l-0.309,1.682c-0.332-0.055-0.602-0.082-0.807-0.082c-0.25,0-0.43,0.042-0.539,0.126s-0.188,0.218-0.232,0.4
		C43.232,4.657,43.221,4.869,43.221,5.193z"/>
	<path d="M53.393,9.514h-5.578c0.051,0.446,0.172,0.779,0.363,0.998c0.269,0.314,0.619,0.471,1.053,0.471
		c0.273,0,0.533-0.068,0.779-0.205c0.15-0.086,0.312-0.238,0.484-0.457l2.742,0.252c-0.42,0.729-0.926,1.252-1.518,1.569
		c-0.593,0.317-1.443,0.476-2.551,0.476c-0.961,0-1.718-0.137-2.27-0.407c-0.551-0.271-1.008-0.702-1.37-1.292
		s-0.544-1.284-0.544-2.082c0-1.134,0.363-2.053,1.091-2.754s1.73-1.053,3.011-1.053c1.039,0,1.859,0.157,2.461,0.472
		s1.061,0.77,1.375,1.367s0.471,1.375,0.471,2.332V9.514z M50.563,8.18c-0.055-0.537-0.199-0.922-0.434-1.155
		s-0.543-0.349-0.926-0.349c-0.442,0-0.796,0.175-1.061,0.526c-0.168,0.219-0.275,0.544-0.32,0.977H50.563z"/>
	<path d="M62.73,9.514h-5.578c0.051,0.446,0.172,0.779,0.363,0.998c0.269,0.314,0.619,0.471,1.053,0.471
		c0.273,0,0.533-0.068,0.779-0.205c0.15-0.086,0.312-0.238,0.484-0.457l2.742,0.252c-0.42,0.729-0.926,1.252-1.518,1.569
		c-0.593,0.317-1.443,0.476-2.551,0.476c-0.961,0-1.718-0.137-2.27-0.407c-0.551-0.271-1.008-0.702-1.37-1.292
		s-0.544-1.284-0.544-2.082c0-1.134,0.363-2.053,1.091-2.754s1.73-1.053,3.011-1.053c1.039,0,1.859,0.157,2.461,0.472
		s1.061,0.77,1.375,1.367s0.471,1.375,0.471,2.332V9.514z M59.9,8.18c-0.055-0.537-0.199-0.922-0.434-1.155
		s-0.543-0.349-0.926-0.349c-0.442,0-0.796,0.175-1.061,0.526c-0.168,0.219-0.275,0.544-0.32,0.977H59.9z"/>
</g>
</svg>
