<?xml version="1.0" encoding="utf-8"?>
<!-- Generator: Adobe Illustrator 16.0.0, SVG Export Plug-In . SVG Version: 6.00 Build 0)  -->
<!DOCTYPE svg PUBLIC "-//W3C//DTD SVG 1.1//EN" "http://www.w3.org/Graphics/SVG/1.1/DTD/svg11.dtd">
<svg version="1.1" id="圖層_1" xmlns="http://www.w3.org/2000/svg" xmlns:xlink="http://www.w3.org/1999/xlink" x="0px" y="0px"
	 width="50px" height="50px" viewBox="0 0 50 50" enable-background="new 0 0 50 50" xml:space="preserve">
<g>
	<path fill-rule="evenodd" clip-rule="evenodd" d="M9.951,48.3c0-0.103,0-0.169,0-0.235c0-2.817,0-5.635,0.003-8.453
		c0-0.125-0.033-0.207-0.133-0.289c-1.74-1.424-3.24-3.067-4.473-4.95c-1.436-2.192-2.431-4.567-2.947-7.143
		c-0.323-1.617-0.444-3.248-0.36-4.891c0.163-3.185,1.039-6.164,2.608-8.941C5.917,11.153,7.55,9.21,9.513,7.545
		c2.168-1.839,4.604-3.217,7.284-4.166c1.489-0.527,3.017-0.899,4.579-1.121c1.607-0.229,3.222-0.292,4.844-0.201
		c2.554,0.142,5.022,0.674,7.404,1.604c1.997,0.779,3.853,1.814,5.562,3.11c2.021,1.533,3.741,3.351,5.132,5.475
		c1.477,2.258,2.479,4.711,2.983,7.363c0.308,1.612,0.413,3.241,0.317,4.879c-0.138,2.368-0.674,4.644-1.616,6.821
		c-1.131,2.612-2.739,4.894-4.785,6.868c-1.912,1.846-4.09,3.301-6.511,4.394c-1.919,0.866-3.921,1.46-5.999,1.794
		c-1.645,0.265-3.3,0.361-4.963,0.28c-1.715-0.084-3.398-0.376-5.059-0.806c-0.066-0.018-0.156-0.01-0.216,0.021
		c-2.68,1.392-5.357,2.786-8.036,4.181C10.282,48.122,10.132,48.203,9.951,48.3z M11.937,45.045
		c0.283-0.147,0.544-0.283,0.806-0.419c1.765-0.92,3.532-1.836,5.293-2.762c0.182-0.096,0.339-0.125,0.54-0.067
		c1.726,0.495,3.485,0.792,5.282,0.87c1.892,0.082,3.765-0.067,5.616-0.457c2.259-0.477,4.394-1.282,6.389-2.448
		c3.126-1.825,5.631-4.274,7.423-7.431c1.39-2.449,2.176-5.08,2.346-7.894c0.121-2.007-0.079-3.98-0.618-5.917
		c-0.874-3.143-2.488-5.86-4.76-8.19c-1.579-1.62-3.387-2.933-5.402-3.957c-2.657-1.35-5.478-2.111-8.451-2.319
		c-2.084-0.146-4.15-0.008-6.194,0.422c-2.778,0.584-5.352,1.661-7.697,3.266c-2.73,1.868-4.898,4.243-6.436,7.18
		c-1.128,2.154-1.795,4.445-2.006,6.867c-0.131,1.511-0.068,3.015,0.179,4.512c0.376,2.284,1.168,4.415,2.353,6.398
		c1.349,2.258,3.096,4.158,5.204,5.729c0.104,0.077,0.14,0.155,0.14,0.283c-0.004,2.042-0.003,4.083-0.003,6.125
		C11.937,44.898,11.937,44.958,11.937,45.045z"/>
	<path fill-rule="evenodd" clip-rule="evenodd" d="M27.096,30.381c-1.917-2.051-3.824-4.093-5.735-6.138
		c-3.545,1.987-7.082,3.971-10.619,5.953c-0.007-0.01-0.014-0.02-0.021-0.029c3.947-4.183,7.894-8.366,11.843-12.551
		c1.957,1.957,3.904,3.904,5.857,5.857c3.464-1.942,6.915-3.878,10.367-5.814c0.006,0.008,0.013,0.016,0.02,0.024
		C34.906,21.913,31.006,26.142,27.096,30.381z"/>
</g>
</svg>
