<?xml version="1.0" encoding="utf-8"?>
<!-- Generator: Adobe Illustrator 16.0.0, SVG Export Plug-In . SVG Version: 6.00 Build 0)  -->
<!DOCTYPE svg PUBLIC "-//W3C//DTD SVG 1.1//EN" "http://www.w3.org/Graphics/SVG/1.1/DTD/svg11.dtd">
<svg version="1.1" id="圖層_1" xmlns="http://www.w3.org/2000/svg" xmlns:xlink="http://www.w3.org/1999/xlink" x="0px" y="0px"
	 width="291px" height="77px" viewBox="0 0 291 77" enable-background="new 0 0 291 77" xml:space="preserve">
<g>
	<g>
		<path fill="#FFF000" d="M26.179,22.068c-1.065,4.912-2.141,12.507,2.429,20.953c4.015,7.42,10.552,12.15,16.264,6.854
			c7.393-6.854,2.688-34.455-6.586-37.868C29.011,8.593,27.264,17.071,26.179,22.068z"/>
		<g>
			<g>
				<g>
					<g>
						<path fill="#231815" d="M34.13,52.416c-1.768,0-3.769-0.637-5.649-1.797c-4.485-2.766-8.098-8.809-8.874-12.819
							c-1.626-8.406,0.269-16.898,5.069-22.715c2.33-2.825,5.071-4.579,7.153-4.579c0.295,0,0.534,0.239,0.534,0.534
							c0,0.295-0.239,0.534-0.534,0.534c-1.745,0-4.229,1.645-6.33,4.19c-4.599,5.574-6.41,13.736-4.844,21.832
							c0.733,3.79,4.147,9.499,8.387,12.114c1.744,1.076,3.58,1.654,5.173,1.635c0.292-0.004,0.538,0.232,0.542,0.527
							s-0.232,0.537-0.527,0.541C34.197,52.416,34.163,52.416,34.13,52.416z"/>
					</g>
				</g>
			</g>
		</g>
	</g>
	<g>
		<g>
			<g>
				<path fill="#231815" d="M138.097,14.469c0.124-0.165,0.283-0.241,0.478-0.229c-0.305-0.232-0.609-0.461-0.913-0.692
					c0.664,2.169-0.814,4.736-1.501,6.756c-0.842,2.458-1.51,5.084-1.152,7.683c0.59,4.308,5.951,5.887,9.383,7.043
					c0.843,0.286,1.418-0.7,1.068-1.392c-1.592-3.147-2.461-6.505-2.895-9.995c-0.121-0.968-1.644-1.397-1.858-0.252
					c-0.435,2.298-1.571,4.601-2.532,6.71c-0.584,1.284-1.221,2.542-1.957,3.744c-0.281,0.46-0.588,0.899-0.949,1.298
					c-0.112,0.129-0.233,0.238-0.374,0.33c0.089-0.059,0.37,0.281,0.188-0.073c-0.572-1.078-2.205-0.122-1.635,0.957
					c1.684,3.191,4.496-1.638,5.225-2.992c1.539-2.853,3.254-6.253,3.857-9.47c-0.618-0.084-1.239-0.168-1.856-0.251
					c0.478,3.84,1.402,7.49,3.155,10.951c0.354-0.465,0.713-0.928,1.066-1.392c-1.766-0.593-3.524-1.171-5.156-2.086
					c-2.718-1.53-3.298-3.954-2.691-6.885c0.41-1.993,1.106-3.91,1.799-5.816c0.619-1.701,1.187-3.582,0.639-5.373
					c-0.12-0.396-0.482-0.707-0.91-0.694c-0.595,0.015-0.953,0.122-1.43,0.484C136.189,13.567,137.131,15.214,138.097,14.469
					L138.097,14.469z"/>
			</g>
			<g>
				<path fill="#231815" d="M129.356,31.243c0,0,0.113-0.184,0.468-0.558c0.5-0.533,1.107-0.957,1.704-1.373
					c1.411-0.983,2.931-1.817,4.444-2.631c1.138-0.612,2.297-1.189,3.447-1.782c2.034-1.048,4.283-1.607,6.254-2.795
					c1.043-0.629,0.092-2.269-0.957-1.638c-1.842,1.114-21.579,8.881-16.315,12.414C129.421,33.56,130.365,31.918,129.356,31.243
					L129.356,31.243z"/>
			</g>
			<g>
				<path fill="#231815" d="M148.648,14.275c1.188-0.248,2.701-0.86,3.877-0.32c1.295,0.596-0.514,3.308-0.889,3.987
					c-1.271,2.313-1.271,3.837,0.153,6.114c1.759,2.81,2.257,5.711,2.216,8.989c-0.023,2.001-0.098,5.996-2.394,6.84
					c0.354,0.145,0.709,0.289,1.067,0.436c-1.575-3.641,0.5-8.537,1.979-11.892c2.01-4.563,5.07-8.229,8.432-11.855
					c0.83-0.895-0.504-2.238-1.336-1.34c-3.725,4.019-6.949,8.058-9.117,13.133c-1.656,3.875-3.369,8.798-1.592,12.909
					c0.158,0.361,0.711,0.566,1.068,0.436c2.708-0.994,3.349-3.981,3.654-6.558c0.43-3.579,0.074-7.323-1.455-10.606
					c-0.398-0.857-1.021-1.627-1.489-2.45c-0.679-1.197-0.13-2.125,0.448-3.197c0.713-1.328,1.456-2.594,1.556-4.127
					c0.245-3.761-4.563-2.768-6.679-2.326C146.955,12.697,147.459,14.524,148.648,14.275L148.648,14.275z"/>
			</g>
			<g>
				<path fill="#231815" d="M169.717,15.991c5.729-0.41,11.296-1.944,17.01-2.472c-0.082-0.621-0.166-1.242-0.252-1.862
					c-1.137,0.214-2.232,0.522-3.333,0.867c-1.162,0.359-0.666,2.186,0.501,1.826c1.105-0.344,2.198-0.651,3.337-0.866
					c1.042-0.196,0.808-1.959-0.253-1.86c-5.714,0.529-11.282,2.065-17.01,2.473C168.508,14.185,168.5,16.079,169.717,15.991
					L169.717,15.991z"/>
			</g>
			<g>
				<path fill="#231815" d="M178.69,14.232c-3.561,2.605-4.819,6.455-6.011,10.533c0.606,0.167,1.215,0.336,1.822,0.503
					c0.384-2.308,1.029-3.689,3.053-4.884c1.348-0.794,3.746-1.732,4.963-0.298c-0.049-0.383-0.1-0.765-0.146-1.147
					c-1.484,2.978-6.01,3.6-8.826,4.687c-1.141,0.438-0.707,2.042,0.5,1.827c0.131,0.002,0.264,0.008,0.395,0.011
					c-0.273-0.475-0.545-0.951-0.82-1.427c-0.295,0.568-0.416,1.177-0.734,1.733c-0.592,1.045-1.68,1.867-2.627,2.561
					c-1.762,1.293-3.768,2.335-5.785,3.156c0.246,0.579,0.486,1.155,0.729,1.732c4.547-2.376,9.729-3.794,14.721-4.954
					c2.178-0.506,4.496-1.033,6.748-0.837c2.533,0.222-1.914,3.435-2.486,3.815c-1.615,1.071-3.361,1.912-4.95,3.02
					c-2.378,1.654-4.722,3.541-7.439,4.612c-0.473,0.184-0.969,0.315-1.479,0.35c-1.248,0.092-0.564-1.686-0.166-2.169
					c0.879-1.071,3.354-1.146,4.602-1.313c3.287-0.439,6.81-1.678,10.107-1.287c-0.158-0.589-0.317-1.175-0.477-1.765
					c-0.061,0.004-0.123,0.013-0.187,0.019c-1.218-0.077-1.211,1.818,0,1.893c0.471,0.028,0.716-0.073,1.14-0.278
					c0.946-0.455,0.352-1.665-0.477-1.764c-2.399-0.282-4.695,0.359-7.026,0.85c-1.896,0.398-3.85,0.487-5.756,0.859
					c-1.288,0.254-2.903,0.72-3.645,1.916c-0.706,1.145-1.137,2.85-0.216,4.01c2.018,2.545,6.443-0.545,8.33-1.768
					c2.536-1.639,4.961-3.346,7.553-4.898c1.882-1.125,5.729-3.288,5.244-6.007c-0.416-2.319-3.341-2.108-5.111-1.935
					c-6.229,0.612-13.135,2.724-18.779,5.382c-0.404,0.195-0.808,0.401-1.205,0.612c-0.939,0.492-0.27,2.14,0.731,1.733
					c2.192-0.896,4.288-1.992,6.233-3.347c0.98-0.683,1.891-1.469,2.672-2.373c0.703-0.811,0.895-1.695,1.371-2.601
					c0.359-0.684-0.101-1.345-0.814-1.426c-0.334-0.037-0.568-0.001-0.895,0.057c0.166,0.609,0.336,1.217,0.5,1.827
					c3.318-1.279,8.204-2.035,9.958-5.559c0.204-0.408,0.146-0.8-0.146-1.145c-1.66-1.954-4.381-1.286-6.43-0.416
					c-2.914,1.236-4.244,3.389-4.748,6.434c-0.197,1.182,1.473,1.698,1.822,0.503c1.029-3.521,2.042-7.13,5.146-9.4
					C180.621,15.155,179.681,13.511,178.69,14.232L178.69,14.232z"/>
			</g>
			<g>
				<path fill="#231815" d="M179.782,9.236c-0.011-0.056-0.021-0.116-0.031-0.172c0.117-0.834-0.586-1.451-1.391-1.072
					c-0.992,0.477-0.735,2.6-0.714,3.454c0.046,2.134,0.111,4.259,0.084,6.396c-0.068,4.687-0.406,9.365-0.684,14.044
					c-0.295,4.977-0.299,9.957-0.537,14.939c-0.385,7.947-1.689,21.488-12.602,20.32c-1.214-0.127-1.202,1.768,0,1.896
					c10.582,1.129,13.396-10.018,14.219-18.355c0.446-4.523,0.375-9.064,0.542-13.602c0.165-4.446,0.513-8.891,0.741-13.335
					c0.126-2.459,0.203-4.919,0.228-7.379c0.011-1.199-0.013-2.399-0.042-3.598c-0.006-0.263-0.166-3.197-0.278-3.142
					c-0.463-0.357-0.926-0.715-1.391-1.072c-0.03,0.238-0.065,0.441-0.036,0.678C178.035,10.433,179.926,10.447,179.782,9.236
					L179.782,9.236z"/>
			</g>
			<g>
				<path fill="#231815" d="M204.715,10.025c-0.476,2.108-2.533,4.523-1.925,6.785c0.798,2.965,4.175,1.312,6.118,0.891
					c-0.402-0.306-0.799-0.611-1.201-0.915c0.027,1.247-1.488,2.759-2.109,3.777c-0.844,1.377-1.696,2.742-2.578,4.092
					c-1.161,1.783-2.461,3.463-3.658,5.221c-0.861,1.265-4.848,7.674-6.817,6.42c-1.036-0.658-1.981,0.982-0.956,1.635
					c3.316,2.112,7.137-3.898,8.656-6.026c1.49-2.08,2.994-4.163,4.408-6.292c1.146-1.729,2.219-3.5,3.297-5.271
					c0.729-1.197,1.682-2.063,1.651-3.555c-0.011-0.639-0.593-1.047-1.198-0.915c-0.77,0.169-1.508,0.461-2.268,0.679
					c-1.375,0.392-1.62-0.278-1.309-1.452c0.414-1.575,1.355-2.984,1.711-4.57C206.806,9.339,204.98,8.833,204.715,10.025
					L204.715,10.025z"/>
			</g>
			<g>
				<path fill="#231815" d="M199.671,21.207c1.538,0.984,2.694,2.415,4.16,3.494c1.671,1.229,3.503,2.21,4.923,3.754
					c0.826,0.899,2.162-0.441,1.336-1.338c-1.26-1.373-2.812-2.342-4.352-3.371c-1.84-1.23-3.244-2.978-5.111-4.175
					C199.595,18.909,198.648,20.55,199.671,21.207L199.671,21.207z"/>
			</g>
			<g>
				<path fill="#231815" d="M210.262,21.821c-0.779,1.332-1.246,2.905-1.904,4.303c-1.139,2.415-2.693,4.625-4.127,6.869
					c-0.582,0.915,0.747,1.917,1.486,1.149c1.515-1.574,3.088-3.093,4.777-4.48c1.003-0.821,2.117-1.646,3.33-2.135
					c1.361-0.55,1.549,0.128,1.271,1.376c-0.516,2.345-1.845,4.539-2.998,6.62c-1.917,3.461-4.02,7.032-7.155,9.526
					c0.54,0.225,1.079,0.447,1.616,0.67c-0.056-0.299-0.051-0.596,0.018-0.893c0.156-1.211-1.739-1.195-1.891,0
					c-0.067,0.297-0.074,0.594-0.018,0.893c0.075,0.869,0.953,1.193,1.615,0.67c3.436-2.736,5.689-6.729,7.787-10.52
					c1.377-2.495,3.438-5.768,2.977-8.745c-0.466-2.968-4.351-1.266-5.771-0.369c-2.571,1.625-4.793,3.863-6.896,6.047
					c0.496,0.381,0.988,0.765,1.484,1.147c1.44-2.255,2.923-4.476,4.123-6.87c0.699-1.389,1.129-2.97,1.909-4.305
					C212.517,21.722,210.883,20.769,210.262,21.821L210.262,21.821z"/>
			</g>
			<g>
				<path fill="#231815" d="M206.746,33.416c1.289,0.117,2.727,1.732,3.621,2.536c1.065,0.956,2.068,1.975,3.068,2.992
					c0.861,0.871,2.195-0.47,1.338-1.339c-1.252-1.271-2.514-2.527-3.867-3.696c-1.168-1.012-2.555-2.242-4.16-2.388
					C205.53,31.411,205.541,33.308,206.746,33.416L206.746,33.416z"/>
			</g>
		</g>
		<g>
			<path fill="#231815" d="M52.587,24.832c-1.234-2.049-3.761-3.272-6.76-3.272c-1.567,0-3.222,0.353-4.668,1.041
				c-0.087-0.258-0.222-0.491-0.412-0.688c-0.371-0.385-0.916-0.605-1.496-0.605c-1.018,0-2.071,0.686-2.119,1.998
				c-0.134,3.66-0.172,7.381-0.208,10.981c-0.012,1.278-0.025,2.558-0.042,3.834c-0.007,0.566,0.182,1.061,0.548,1.432
				c0.377,0.383,0.923,0.604,1.5,0.604c0.848,0,1.7-0.482,1.983-1.395c0.327,0.305,0.771,0.508,1.337,0.508c0.004,0,0.042,0,0.047,0
				c4.81-0.094,7.984-1.653,9.707-4.766C53.476,31.832,54.119,27.377,52.587,24.832z M41.058,34.306
				c0.021-1.963,0.045-3.962,0.081-5.965c0.021-0.065,0.045-0.125,0.061-0.193c0.368-1.6,2.52-2.437,4.453-2.437
				c1.521,0,2.797,0.481,3.414,1.288c0.722,0.943,0.085,3.873-0.67,5.477c-1.067,2.265-3.833,2.606-6.127,2.651
				c-0.499,0.01-0.908,0.172-1.224,0.424C41.049,35.136,41.056,34.72,41.058,34.306z M42.249,38.601L42.249,38.601v0.002V38.601z"/>
			<path fill="#231815" d="M62.973,20.197c0.08-0.97,0.146-1.941,0.173-2.906c0.018-0.566-0.165-1.064-0.527-1.438
				c-0.373-0.384-0.919-0.604-1.497-0.604c-1.018,0-2.07,0.688-2.109,2.002c-0.03,0.991-0.099,1.986-0.186,2.982
				c-1.639,0.194-3.141,0.544-4.252,0.857c-1.016,0.286-1.601,1.189-1.454,2.246c0.146,1.061,0.975,1.83,1.969,1.83
				c0.193,0,0.393-0.028,0.591-0.083c0.734-0.208,1.65-0.435,2.624-0.606c-1.274,8.088-4.01,15.929-6.38,21.651
				c-0.428,0.371-0.66,0.902-0.66,1.518v0.443c0,1.227,1.168,2.084,2.215,2.084c0.754,0,1.379-0.418,1.675-1.115
				c2.758-6.49,5.977-15.514,7.343-24.744c2.887,0.478,3,2.427,3.037,3.126c0.266,4.617-1.31,10.268-4.682,16.796
				c-0.344,0.664-0.324,1.402,0.052,2.023c0.396,0.652,1.131,1.074,1.87,1.074c0.718,0,1.33-0.389,1.679-1.068
				c2.031-3.93,3.539-8.028,4.485-12.181c0.556-2.444,1.593-6.994,0.153-10.019C68.05,21.872,65.944,20.563,62.973,20.197z"/>
			<path fill="#231815" d="M97.078,22.968c0.024-0.163,0.034-0.33,0.019-0.508c-0.004-0.037-0.016-0.075-0.021-0.111
				c-0.007-2.011-0.022-4.021-0.024-6.03c-0.001-2.012-2.361-2.478-3.465-1.524c-0.434,0.372-0.67,0.913-0.669,1.525
				c0,1.5,0.013,3,0.017,4.501c-0.299,0.06-0.6,0.118-0.9,0.18c-1.111,0.227-2.221,0.452-3.336,0.658
				c-1.021,0.188-1.645,1.003-1.552,2.032c0.089,0.981,0.866,2.024,2.127,2.024c0.13,0,0.266-0.011,0.408-0.037
				c1.092-0.201,2.181-0.422,3.268-0.645c0.007,1.212,0.008,2.424,0.015,3.636c-0.316,0.064-0.633,0.125-0.951,0.19
				c-1.104,0.225-2.207,0.451-3.315,0.654c-0.385,0.07-0.715,0.231-0.969,0.459c0.215-1.882,0.02-3.783-0.798-5.141
				c-1.232-2.049-3.76-3.272-6.761-3.272c-1.567,0-3.221,0.353-4.667,1.041c-0.087-0.258-0.222-0.491-0.413-0.688
				c-0.371-0.385-0.915-0.605-1.495-0.605c-1.017,0-2.071,0.686-2.119,1.998c-0.134,3.678-0.172,7.418-0.208,11.035
				c-0.012,1.261-0.024,2.521-0.041,3.78c-0.008,0.566,0.182,1.061,0.549,1.432c0.375,0.383,0.923,0.604,1.5,0.604
				c0.846,0,1.698-0.482,1.98-1.395c0.328,0.305,0.772,0.508,1.339,0.508h0.046c4.809-0.094,7.983-1.653,9.705-4.766
				c0.379-0.687,0.702-1.491,0.949-2.35c0.29,0.761,0.978,1.418,1.978,1.418c0.13,0,0.266-0.012,0.408-0.039
				c1.102-0.201,2.201-0.426,3.298-0.65c0,0.027,0,0.056,0,0.083c0.007,1.294,0.008,2.588,0.015,3.882
				c-0.317,0.063-0.635,0.126-0.952,0.19c-1.112,0.227-2.226,0.455-3.344,0.66c-1.021,0.188-1.645,1.003-1.552,2.032
				c0.089,0.982,0.866,2.025,2.127,2.025c0.13,0,0.266-0.012,0.408-0.037c1.114-0.205,2.221-0.43,3.33-0.656
				c0.011,2.893,0.031,5.785,0.033,8.678c0,1.33,1.039,2.025,2.066,2.025c0.526,0,1.023-0.178,1.398-0.502
				c0.432-0.371,0.67-0.912,0.669-1.523c-0.001-5.617-0.033-11.233-0.063-16.849C97.098,29.583,97.09,26.275,97.078,22.968z
				 M75.404,34.351c0.019-1.977,0.043-3.991,0.081-6.01c0.021-0.063,0.045-0.125,0.06-0.193c0.369-1.6,2.52-2.437,4.453-2.437
				c1.521,0,2.798,0.481,3.415,1.288c0.721,0.943,0.084,3.873-0.67,5.477c-1.067,2.265-3.835,2.606-6.127,2.651
				c-0.5,0.01-0.909,0.172-1.226,0.424C75.394,35.151,75.4,34.751,75.404,34.351z M76.596,38.601L76.596,38.601v0.002V38.601z"/>
			<path fill="#231815" d="M127.525,35.736c-0.008,0-0.085,0.001-0.092,0.001c-2.114,0.081-4.245,0.184-6.367,0.292
				c-0.006-1.557-0.025-3.119-0.082-4.67c-0.049-1.313-1.104-1.999-2.119-1.999c-0.58,0-1.126,0.221-1.495,0.606
				c-0.36,0.376-0.542,0.874-0.521,1.441c0.06,1.606,0.079,3.229,0.084,4.847c-0.819,0.047-1.639,0.093-2.447,0.139
				c-2.517,0.143-5.034,0.284-7.553,0.413c2.784-3.648,5.241-6.668,7.665-9.434c0.564-0.643,0.701-1.56,0.35-2.337
				c-0.329-0.731-1.01-1.167-1.848-1.167c-2.891,0.032-5.806,0.199-8.647,0.372v-3.787c0-2.658-4.135-2.658-4.135,0v28.487
				c0,1.33,1.041,2.025,2.068,2.025c1.026,0,2.066-0.695,2.066-2.025v-7.873c3.388-0.156,6.796-0.346,10.11-0.533
				c0.777-0.045,1.563-0.088,2.35-0.133c-0.005,0.588-0.012,1.176-0.019,1.758c-0.022,1.688-0.042,3.375-0.044,5.063
				c-0.001,0.563,0.194,1.057,0.563,1.428c0.378,0.381,0.927,0.598,1.501,0.598c1.028,0,2.068-0.695,2.07-2.023
				c0.002-1.684,0.023-3.365,0.044-5.049c0.007-0.662,0.017-1.33,0.022-1.998c2.145-0.113,4.297-0.215,6.434-0.299
				c1.322-0.051,2.014-1.157,1.994-2.168C129.458,36.727,128.781,35.736,127.525,35.736z M104.452,33.273v-4.891
				c1.343-0.082,2.703-0.163,4.066-0.228C107.225,29.728,105.89,31.406,104.452,33.273z"/>
		</g>
		<g>
			<path fill="#40210F" d="M141.034,56.721c-0.013,0.357-0.243,0.662-0.702,0.924c-0.461,0.252-1.004,0.377-1.623,0.377
				c-1.068,0-1.947-0.365-2.637-1.111c-0.691-0.742-1.037-1.666-1.037-2.777c0-1.152,0.346-2.096,1.037-2.83
				c0.689-0.734,1.568-1.1,2.637-1.1c0.619,0,1.162,0.125,1.623,0.387c0.459,0.252,0.689,0.557,0.702,0.9
				c0,0.451-0.295,0.861-0.683,0.873c-0.198,0.008-0.429-0.074-0.7-0.232c-0.261-0.168-0.576-0.252-0.931-0.252
				c-0.598,0-1.068,0.209-1.412,0.629c-0.348,0.41-0.526,0.955-0.526,1.625c0,0.639,0.179,1.174,0.526,1.594
				c0.344,0.408,0.814,0.619,1.412,0.619c0.354,0,0.67-0.086,0.931-0.242c0.271-0.168,0.502-0.25,0.7-0.24
				C140.739,55.873,141.034,56.291,141.034,56.721z"/>
			<path fill="#40210F" d="M148.449,51.293c-0.744-0.725-1.654-1.09-2.742-1.09s-2.01,0.365-2.752,1.09
				c-0.744,0.723-1.11,1.656-1.11,2.809c0,1.143,0.366,2.086,1.11,2.809c0.742,0.723,1.652,1.08,2.752,1.08s2.009-0.357,2.752-1.08
				c0.744-0.723,1.107-1.666,1.107-2.809S149.191,52.016,148.449,51.293z M147.193,55.695c-0.378,0.408-0.869,0.607-1.486,0.607
				c-0.618,0-1.111-0.199-1.498-0.607c-0.377-0.408-0.564-0.943-0.564-1.604c0-0.672,0.188-1.205,0.564-1.615
				c0.387-0.408,0.88-0.607,1.498-0.607c0.617,0,1.108,0.199,1.486,0.607c0.386,0.41,0.574,0.943,0.574,1.615
				C147.768,54.752,147.579,55.287,147.193,55.695z"/>
			<path fill="#40210F" d="M152.283,54.846v1.939c0,0.723-0.355,1.027-0.847,1.027c-0.503,0-0.849-0.305-0.849-1.027V52.99
				c0-0.775,0.231-1.404,0.682-1.896c0.449-0.492,1.067-0.734,1.853-0.734h1.496c0.492,0,0.837,0.273,0.837,0.775
				c0,0.514-0.355,0.787-0.816,0.787h-1.286c-0.671,0-1.069,0.408-1.069,1.068v0.283h2.021c0.461,0,0.816,0.273,0.816,0.787
				c0,0.512-0.355,0.785-0.816,0.785H152.283z"/>
			<path fill="#40210F" d="M158.08,54.846v1.939c0,0.723-0.356,1.027-0.85,1.027c-0.502,0-0.848-0.305-0.848-1.027V52.99
				c0-0.775,0.23-1.404,0.681-1.896c0.448-0.492,1.067-0.734,1.853-0.734h1.496c0.493,0,0.838,0.273,0.838,0.775
				c0,0.514-0.357,0.787-0.816,0.787h-1.289c-0.668,0-1.064,0.408-1.064,1.068v0.283h2.018c0.462,0,0.816,0.273,0.816,0.787
				c0,0.512-0.354,0.785-0.816,0.785H158.08z"/>
			<path fill="#40210F" d="M163.874,56.25h2.657c0.513,0,0.816,0.273,0.816,0.775c0,0.514-0.304,0.787-0.816,0.787h-3.537
				c-0.587,0-0.816-0.125-0.816-0.713v-6.027c0-0.586,0.229-0.713,0.816-0.713h3.443c0.513,0,0.816,0.273,0.816,0.775
				c0,0.514-0.304,0.787-0.816,0.787h-2.563v1.352h2.323c0.512,0,0.814,0.273,0.814,0.787c0,0.512-0.303,0.785-0.814,0.785h-2.323
				V56.25z"/>
			<path fill="#40210F" d="M170.075,56.25h2.658c0.513,0,0.815,0.273,0.815,0.775c0,0.514-0.303,0.787-0.815,0.787h-3.536
				c-0.588,0-0.818-0.125-0.818-0.713v-6.027c0-0.586,0.23-0.713,0.818-0.713h3.441c0.513,0,0.817,0.273,0.817,0.775
				c0,0.514-0.305,0.787-0.817,0.787h-2.563v1.352h2.322c0.513,0,0.817,0.273,0.817,0.787c0,0.512-0.305,0.785-0.817,0.785h-2.322
				V56.25z"/>
			<path fill="#40210F" d="M182.973,55.664c0-0.262-0.084-0.463-0.252-0.588c-0.157-0.125-0.471-0.271-0.941-0.439
				c-1.289-0.461-1.947-1.133-1.947-2.223c0-0.682,0.241-1.227,0.723-1.635c0.48-0.41,1.088-0.607,1.82-0.607
				c1.173,0,1.926,0.461,1.926,1.09c0,0.514-0.282,0.795-0.753,0.795c-0.137,0-0.304-0.051-0.481-0.168
				c-0.178-0.113-0.398-0.166-0.648-0.166c-0.503,0-0.828,0.24-0.828,0.691c0,0.336,0.336,0.629,0.994,0.871
				c0.786,0.291,1.33,0.596,1.654,0.92c0.324,0.326,0.49,0.787,0.49,1.406c0,0.744-0.26,1.33-0.773,1.762
				c-0.512,0.428-1.16,0.648-1.957,0.648c-0.658,0-1.191-0.115-1.602-0.355c-0.406-0.242-0.605-0.525-0.605-0.85
				c0-0.461,0.334-0.818,0.836-0.818c0.137,0,0.336,0.074,0.598,0.221c0.261,0.137,0.533,0.209,0.805,0.209
				C182.647,56.428,182.973,56.094,182.973,55.664z"/>
			<path fill="#40210F" d="M187.342,54.846v1.939c0,0.723-0.355,1.027-0.847,1.027c-0.503,0-0.849-0.305-0.849-1.027v-5.398
				c0-0.723,0.346-1.027,0.849-1.027c0.491,0,0.847,0.305,0.847,1.027v1.887h2.492v-1.887c0-0.723,0.355-1.027,0.848-1.027
				s0.85,0.305,0.85,1.027v5.398c0,0.723-0.357,1.027-0.85,1.027s-0.848-0.305-0.848-1.027v-1.939H187.342z"/>
			<path fill="#40210F" d="M199.154,51.293c-0.742-0.725-1.653-1.09-2.742-1.09c-1.09,0-2.01,0.365-2.75,1.09
				c-0.744,0.723-1.111,1.656-1.111,2.809c0,1.143,0.367,2.086,1.111,2.809c0.74,0.723,1.651,1.08,2.75,1.08
				c1.098,0,2.009-0.357,2.753-1.08c0.743-0.723,1.109-1.666,1.109-2.809S199.896,52.016,199.154,51.293z M197.898,55.695
				c-0.377,0.408-0.869,0.607-1.486,0.607c-0.618,0-1.109-0.199-1.496-0.607c-0.376-0.408-0.565-0.943-0.565-1.604
				c0-0.672,0.189-1.205,0.565-1.615c0.387-0.408,0.878-0.607,1.496-0.607c0.617,0,1.109,0.199,1.486,0.607
				c0.388,0.41,0.574,0.943,0.574,1.615C198.473,54.752,198.286,55.287,197.898,55.695z"/>
			<path fill="#40210F" d="M202.99,55.422v1.363c0,0.723-0.355,1.027-0.85,1.027c-0.502,0-0.846-0.305-0.846-1.027v-5.713
				c0-0.586,0.303-0.713,0.818-0.713h1.369c1.811,0,2.826,0.986,2.826,2.537c0,1.592-0.901,2.525-2.795,2.525H202.99z
				 M202.99,53.881h0.523c0.764,0,1.162-0.324,1.162-0.984c0-0.672-0.366-1.068-1.162-1.068h-0.523V53.881z"/>
		</g>
	</g>
</g>
</svg>
